<?xml version="1.0" standalone="no"?>
<!DOCTYPE svg PUBLIC "-//W3C//DTD SVG 20010904//EN"
 "http://www.w3.org/TR/2001/REC-SVG-20010904/DTD/svg10.dtd">
<svg version="1.0" xmlns="http://www.w3.org/2000/svg"
 width="400.000000pt" height="400.000000pt" viewBox="0 0 400.000000 400.000000"
 preserveAspectRatio="xMidYMid meet">
<metadata>
Created by potrace 1.11, written by Peter Selinger 2001-2013
</metadata>
<g transform="translate(0.000000,400.000000) scale(0.100000,-0.100000)"
fill="#000000" stroke="none">
<path d="M1993 3717 c-2 -4 -9 -5 -14 -2 -5 4 -9 1 -9 -5 0 -6 -11 -8 -25 -6
-14 3 -25 0 -25 -5 0 -5 -5 -9 -11 -9 -5 0 -7 6 -4 13 4 6 -1 3 -10 -8 -9 -11
-21 -19 -26 -17 -5 1 -8 -1 -8 -5 4 -22 -3 -33 -18 -34 -15 0 -15 -2 2 -9 12
-5 14 -9 6 -9 -8 -1 -12 -4 -8 -7 3 -3 2 -17 -3 -29 -6 -16 -5 -25 3 -29 7 -2
6 -5 -4 -5 -9 -1 -16 -7 -17 -13 -1 -13 -9 -48 -12 -58 -1 -3 -3 -9 -4 -15 -1
-5 -5 -17 -8 -25 -7 -18 -32 -102 -34 -112 -1 -5 -3 -10 -4 -13 -4 -9 -7 -25
-9 -46 0 -11 -5 -18 -9 -15 -4 2 -8 -5 -9 -17 0 -12 -6 -37 -11 -54 -8 -25 -8
-33 1 -33 7 -1 1 -7 -13 -15 -14 -8 -22 -14 -19 -15 4 0 3 -17 -2 -37 -17 -68
-21 -88 -22 -100 0 -7 -4 -13 -9 -13 -4 0 -8 -12 -8 -26 0 -14 -4 -23 -8 -20
-5 3 -8 -5 -7 -17 2 -21 -1 -30 -26 -78 -7 -15 -7 -19 0 -14 16 9 14 -7 -4
-31 -8 -12 -16 -37 -18 -55 -2 -19 -7 -41 -12 -49 -10 -15 -15 -35 -17 -57 -1
-7 -5 -13 -10 -13 -4 0 -8 -5 -8 -11 0 -5 6 -7 13 -4 6 4 5 1 -3 -7 -8 -7 -17
-26 -19 -43 -1 -16 -7 -38 -12 -48 -6 -9 -7 -22 -4 -27 3 -6 2 -10 -3 -10 -5
0 -9 -6 -10 -12 -1 -25 -11 -60 -20 -72 -5 -6 -8 -19 -7 -28 2 -10 -1 -20 -5
-23 -5 -3 -7 -12 -4 -19 3 -8 0 -17 -5 -21 -6 -3 -9 -11 -6 -16 4 -5 1 -9 -6
-9 -7 0 -9 -3 -6 -7 4 -3 1 -13 -6 -21 -10 -13 -9 -14 3 -7 12 6 13 5 3 -6 -7
-7 -13 -21 -13 -31 0 -10 -4 -18 -10 -18 -5 0 -7 -7 -4 -15 4 -9 0 -15 -7 -15
-12 0 -12 -2 0 -9 9 -6 10 -11 2 -15 -6 -4 -9 -12 -6 -17 4 -5 1 -9 -4 -9 -6
0 -10 -3 -10 -7 4 -25 -3 -42 -18 -46 -17 -4 -17 -5 0 -6 18 -1 18 1 -14 -62
-8 -16 -8 -19 1 -14 7 4 5 -3 -4 -17 -8 -13 -16 -38 -18 -56 -1 -17 -6 -32
-10 -32 -4 0 -5 -7 -2 -15 4 -8 2 -15 -3 -15 -5 0 -10 -7 -11 -15 -1 -8 -3
-22 -4 -30 -1 -8 -5 -15 -9 -15 -5 0 -6 -7 -3 -15 4 -8 2 -15 -4 -15 -6 0 -9
-8 -7 -17 1 -10 -2 -24 -8 -30 -6 -9 -5 -13 4 -13 9 0 10 -3 4 -8 -16 -11 -32
-52 -46 -114 -7 -32 -16 -58 -20 -58 -4 0 -6 -8 -5 -17 2 -10 -1 -20 -5 -23
-5 -4 -10 -23 -11 -43 -2 -20 -6 -37 -11 -37 -4 0 -6 -3 -6 -7 3 -20 -2 -34
-11 -28 -6 3 -7 -1 -4 -10 4 -8 0 -23 -7 -32 -12 -14 -12 -16 1 -8 13 8 13 7
1 -8 -7 -9 -11 -26 -8 -37 3 -11 1 -18 -4 -14 -5 3 -10 0 -10 -5 -1 -6 -2 -16
-3 -21 0 -6 -8 -15 -16 -20 -9 -6 -10 -10 -3 -10 8 0 9 -9 2 -32 -6 -18 -12
-40 -14 -48 -2 -8 -8 -29 -14 -47 -5 -17 -7 -34 -3 -37 3 -3 0 -6 -7 -6 -7 0
-10 -4 -7 -8 3 -5 -1 -21 -9 -36 -8 -14 -10 -24 -5 -21 6 3 7 -1 4 -9 -3 -9
-10 -16 -14 -16 -4 0 -6 -11 -5 -25 2 -14 -1 -25 -6 -25 -6 0 -7 -5 -4 -10 3
-6 2 -10 -2 -10 -5 0 -10 -9 -11 -20 -4 -44 -6 -50 -15 -50 -6 0 -8 -2 -5 -6
3 -3 0 -25 -8 -50 -7 -24 -10 -44 -6 -44 4 0 2 -4 -5 -8 -7 -4 -13 -22 -15
-40 -1 -18 -6 -32 -11 -32 -4 0 -6 -4 -2 -9 3 -5 1 -12 -5 -16 -6 -4 -8 -10
-5 -15 14 -22 -42 -87 -59 -70 -5 5 -17 5 -28 -1 -12 -7 -18 -6 -18 1 0 8 -6
8 -20 0 -14 -8 -20 -8 -20 0 0 8 -6 8 -20 0 -14 -8 -20 -8 -20 0 0 8 -6 8 -20
0 -14 -8 -20 -8 -20 0 0 8 -6 8 -20 0 -14 -8 -20 -8 -20 0 0 6 -5 8 -11 5 -16
-10 -79 -12 -79 -2 0 4 -9 3 -19 -3 -13 -7 -22 -7 -26 0 -4 7 -12 7 -25 0 -13
-7 -21 -7 -25 0 -4 7 -13 7 -26 0 -12 -7 -19 -7 -19 -1 0 7 -8 7 -24 1 -13 -5
-27 -6 -30 -3 -3 4 -6 2 -6 -4 0 -6 -67 -9 -176 -9 -107 1 -178 -3 -182 -9 -7
-11 -12 -52 -15 -129 l-2 -50 70 1 c39 1 84 2 100 3 17 1 39 -1 50 -3 11 -2
30 0 42 4 13 5 23 5 23 1 0 -4 31 -7 69 -7 38 0 67 3 64 7 -2 5 6 4 19 0 20
-6 122 -8 213 -2 17 1 39 -1 50 -3 11 -2 30 0 42 4 13 5 23 5 23 1 0 -4 31 -7
69 -7 38 0 67 3 64 7 -2 5 6 4 19 0 20 -6 122 -8 213 -2 17 1 39 -1 50 -3 11
-2 30 0 43 4 12 5 22 5 22 1 0 -4 31 -7 69 -7 38 0 67 3 64 7 -2 5 6 4 19 0
20 -6 122 -8 213 -2 17 1 39 -1 50 -3 11 -2 30 0 43 4 12 5 22 5 22 1 0 -4 31
-7 69 -7 38 0 67 3 64 7 -2 5 6 4 19 0 20 -6 122 -8 213 -2 17 1 39 -1 50 -3
11 -2 30 0 43 4 12 5 22 5 22 1 0 -4 31 -7 69 -7 38 0 67 3 64 7 -2 5 6 4 19
0 19 -6 276 -8 373 -2 17 1 39 -1 50 -3 11 -2 30 0 43 4 12 5 22 5 22 1 0 -4
31 -7 69 -7 38 0 67 3 64 7 -2 5 6 4 19 0 20 -6 122 -8 213 -2 17 1 39 -1 50
-3 11 -2 30 0 43 4 12 5 22 5 22 1 0 -4 31 -7 69 -7 38 0 67 3 64 7 -2 5 6 4
19 0 20 -6 122 -8 213 -2 17 1 39 -1 50 -3 11 -2 30 0 43 4 12 5 22 5 22 1 0
-6 68 -7 160 -3 12 1 15 18 15 91 0 83 -2 90 -20 91 -11 1 -52 2 -92 3 -39 0
-69 4 -66 9 5 8 -3 9 -129 9 -54 0 -102 -3 -108 -7 -5 -3 -10 -2 -10 2 0 10
-63 8 -79 -2 -6 -3 -11 -1 -11 5 0 8 -6 8 -20 0 -14 -8 -20 -8 -20 0 0 8 -6 8
-20 0 -14 -8 -20 -8 -20 0 0 7 -6 8 -18 1 -11 -6 -24 -6 -35 0 -11 7 -17 6
-17 -1 0 -7 -6 -8 -19 -1 -10 6 -21 8 -24 5 -3 -3 -3 3 0 15 3 12 1 21 -6 21
-6 0 -10 3 -10 8 4 23 -2 52 -10 48 -5 -3 -9 4 -9 17 0 12 -3 33 -7 47 -3 14
-7 31 -7 38 -1 6 -5 12 -9 12 -5 0 -5 7 -2 17 4 11 3 14 -5 9 -8 -5 -10 -2 -6
9 4 8 1 22 -6 30 -10 12 -10 15 0 15 9 0 8 6 -4 19 -10 11 -15 25 -11 30 3 6
2 11 -4 11 -5 0 -8 9 -6 20 2 11 0 18 -6 15 -9 -6 -13 13 -10 48 1 9 -3 17 -9
17 -7 0 -10 7 -7 15 4 8 2 17 -4 20 -5 4 -7 11 -4 16 4 5 2 9 -3 9 -5 0 -8 10
-8 22 1 13 -2 29 -7 36 -5 6 -6 12 -1 12 5 0 3 4 -5 9 -8 5 -15 22 -16 38 -3
37 -12 72 -23 87 -4 6 -9 25 -11 41 -2 17 -7 38 -12 47 -5 9 -9 26 -9 37 0 12
-5 21 -11 21 -5 0 -8 4 -4 9 3 5 1 12 -5 16 -5 3 -10 11 -10 16 0 6 6 7 13 3
8 -5 7 -2 -2 9 -8 10 -15 27 -16 40 -4 37 -5 38 -14 33 -5 -4 -8 2 -6 11 1 10
-3 24 -9 32 -9 12 -8 13 4 6 12 -7 13 -6 3 7 -7 8 -10 18 -6 21 3 4 1 7 -6 7
-7 0 -11 6 -8 14 3 7 -2 24 -10 37 -13 17 -13 20 -2 14 11 -6 12 -5 2 6 -7 7
-13 21 -13 31 0 10 -4 18 -9 18 -5 0 -7 14 -6 30 1 17 -1 33 -6 35 -4 3 -6 12
-2 20 3 9 -1 15 -10 15 -10 0 -13 7 -10 19 2 10 -3 25 -12 35 -12 12 -13 16
-3 16 9 0 9 3 2 8 -6 4 -10 15 -8 25 1 9 -2 17 -8 17 -6 0 -8 6 -5 14 3 7 1
18 -5 24 -6 6 -13 26 -15 43 -2 18 -9 39 -16 48 -9 11 -9 13 0 8 8 -5 8 1 -2
19 -8 15 -12 31 -9 36 3 4 1 8 -3 8 -5 0 -10 12 -11 26 -1 15 -8 40 -16 56 -8
15 -10 25 -4 22 5 -4 2 6 -8 21 -10 15 -19 39 -20 54 -3 39 -13 74 -21 80 -8
6 -9 10 -17 54 -3 12 -5 22 -6 22 -1 0 -4 13 -6 30 -3 16 -9 35 -15 41 -5 6
-6 13 -3 16 2 3 -2 23 -10 44 -17 45 -29 92 -30 114 0 8 -6 21 -13 28 -7 8
-11 17 -8 22 3 5 1 11 -4 15 -6 3 -8 12 -4 20 3 8 0 15 -5 15 -6 0 -9 9 -7 20
2 11 -1 22 -6 25 -5 4 -7 11 -4 16 4 5 2 9 -4 9 -6 0 -8 7 -5 15 4 8 1 15 -6
15 -6 0 -8 5 -5 10 4 6 1 17 -5 25 -10 12 -10 15 1 15 9 0 10 3 4 8 -6 4 -17
27 -25 52 -7 25 -18 51 -24 59 -9 12 -8 13 4 6 12 -6 13 -5 3 6 -7 7 -13 23
-13 36 0 13 -6 23 -12 23 -9 0 -8 4 2 10 8 5 10 10 5 10 -12 0 -38 77 -30 90
3 4 0 10 -7 12 -6 2 -13 13 -14 24 -1 10 -5 30 -9 44 -4 14 -7 31 -7 38 -1 6
-4 12 -8 12 -4 0 -7 10 -8 23 0 32 -13 67 -24 67 -6 0 -5 7 2 15 9 10 9 15 1
15 -6 0 -11 9 -11 20 0 11 -4 20 -9 20 -6 0 -8 9 -6 20 2 11 0 20 -6 20 -5 0
-9 5 -9 11 0 5 5 7 10 4 6 -4 1 10 -10 30 -11 20 -16 34 -10 30 6 -3 7 0 4 9
-3 9 -10 16 -15 16 -5 0 -9 7 -9 15 0 17 -36 39 -50 30 -6 -3 -10 -2 -10 3 0
8 -14 12 -53 13 -9 0 -16 3 -13 7 5 9 -147 7 -169 -2 -9 -3 -14 -2 -11 3 3 5
-6 8 -20 7 -14 0 -28 -4 -31 -9z"/>
</g>
</svg>
